<svg width="12" height="17" viewBox="0 0 12 17" fill="none" xmlns="http://www.w3.org/2000/svg">
<g id="Group 2">
<path id="Line 4" d="M5.46967 14.5303C5.76256 14.8232 6.23744 14.8232 6.53033 14.5303L11.3033 9.75736C11.5962 9.46447 11.5962 8.98959 11.3033 8.6967C11.0104 8.40381 10.5355 8.40381 10.2426 8.6967L6 12.9393L1.75736 8.6967C1.46447 8.40381 0.989592 8.40381 0.696699 8.6967C0.403806 8.98959 0.403806 9.46447 0.696699 9.75736L5.46967 14.5303ZM6.75 1C6.75 0.585786 6.41421 0.25 6 0.25C5.58579 0.25 5.25 0.585786 5.25 1L6.75 1ZM6.75 14L6.75 1L5.25 1L5.25 14L6.75 14Z" fill="white"/>
<line id="Line 5" x1="0.75" y1="16.25" x2="11.25" y2="16.25" stroke="white" stroke-width="1.5" stroke-linecap="round"/>
</g>
</svg>
